<svg xmlns="http://www.w3.org/2000/svg" viewBox="0 0 47.031 45">
  <defs>
    <style>
      .cls-1 {
        fill: #2699fb;
      }

      .cls-2 {
        fill: #fff;
        font-size: 10px;
        font-family: OpenSans-Bold, Open Sans;
        font-weight: 700;
      }
    </style>
  </defs>
  <g id="NEW" transform="translate(-604.291 -184)">
    <g id="Group_21" data-name="Group 21" transform="translate(651.323 184) rotate(90)">
      <path id="Path_990" data-name="Path 990" class="cls-1" d="M23.917.693l3.511,4.374a1.868,1.868,0,0,0,1.91.616L34.758,4.2A1.857,1.857,0,0,1,37.1,5.867l.308,5.606a1.812,1.812,0,0,0,1.17,1.6l5.236,2.033a1.792,1.792,0,0,1,.862,2.71L41.6,22.5a2,2,0,0,0,0,2.033l3.08,4.682a1.867,1.867,0,0,1-.862,2.71l-5.236,2.033a1.786,1.786,0,0,0-1.17,1.6L37.1,41.164a1.834,1.834,0,0,1-2.341,1.663l-5.421-1.478a1.868,1.868,0,0,0-1.91.616l-3.511,4.374a1.8,1.8,0,0,1-2.834,0l-3.511-4.374a1.868,1.868,0,0,0-1.91-.616l-5.421,1.478A1.857,1.857,0,0,1,7.9,41.164l-.308-5.606a1.812,1.812,0,0,0-1.17-1.6L1.187,31.924a1.792,1.792,0,0,1-.862-2.71L3.4,24.532a2,2,0,0,0,0-2.033L.324,17.818a1.867,1.867,0,0,1,.862-2.71l5.236-2.033a1.786,1.786,0,0,0,1.17-1.6L7.9,5.867A1.834,1.834,0,0,1,10.242,4.2l5.421,1.478a1.868,1.868,0,0,0,1.91-.616L21.083.693A1.8,1.8,0,0,1,23.917.693Z" transform="translate(0 0)"/>
    </g>
    <text id="NEW-2" data-name="NEW" class="cls-2" transform="translate(616.521 210.917)"><tspan x="0" y="0">NEW</tspan></text>
  </g>
</svg>
